<svg width="113" height="26" viewBox="0 0 113 26" fill="none" xmlns="http://www.w3.org/2000/svg">
<path d="M110.97 3.35043C110.765 2.89993 110.18 2.88194 109.935 3.30719C108.801 5.2495 106.772 6.46031 104.454 6.46031H101.529C97.6527 6.46031 94.5082 9.55938 94.5082 13.3792C94.5082 13.6315 94.5374 13.8729 94.5631 14.118C96.8958 12.4711 100.263 11.0729 105.039 11.0729C105.361 11.0729 105.624 11.3324 105.624 11.6495C105.624 11.9666 105.361 12.2261 105.039 12.2261C95.8465 12.2261 91.9487 17.7792 91.0858 19.8657C90.8444 20.4531 91.1296 21.1234 91.7256 21.3648C92.3253 21.6099 93.0054 21.3252 93.254 20.7414C93.3089 20.6117 94.0182 19.0153 95.883 17.4765C97.0677 19.0585 99.3201 20.5684 102.278 20.2585C108.019 19.8477 112.059 14.7738 112.059 8.56124C112.059 6.75221 111.664 4.8783 110.97 3.35043Z" fill="#1B8F6E"/>
<path d="M2.91594 4.352H9.37194C9.99594 4.352 10.6439 4.424 11.3159 4.568C12.0039 4.712 12.6199 4.968 13.1639 5.336C13.7239 5.704 14.1799 6.216 14.5319 6.872C14.8999 7.528 15.0839 8.36 15.0839 9.368V15.248C15.0839 16.192 14.9159 17 14.5799 17.672C14.2599 18.344 13.8199 18.896 13.2599 19.328C12.6999 19.76 12.0519 20.072 11.3159 20.264C10.5799 20.472 9.79594 20.576 8.96394 20.576H2.91594V4.352ZM9.08394 18.488C9.65994 18.488 10.2119 18.44 10.7399 18.344C11.2679 18.232 11.7319 18.048 12.1319 17.792C12.5319 17.52 12.8519 17.168 13.0919 16.736C13.3319 16.288 13.4519 15.728 13.4519 15.056V10.088C13.4519 8.68 13.0839 7.696 12.3479 7.136C11.6119 6.56 10.4519 6.272 8.86794 6.272H5.09994V18.488H9.08394ZM17.7641 13.352C17.7641 12.904 17.8521 12.48 18.0281 12.08C18.2201 11.664 18.4841 11.304 18.8201 11C19.1561 10.68 19.5561 10.432 20.0201 10.256C20.4841 10.064 20.9961 9.968 21.5561 9.968H23.0441C23.6681 9.968 24.2281 10.072 24.7241 10.28C25.2201 10.472 25.6361 10.728 25.9721 11.048C26.3081 11.368 26.5641 11.736 26.7401 12.152C26.9161 12.568 27.0041 13 27.0041 13.448V17.336C27.0041 17.784 26.9321 18.208 26.7881 18.608C26.6441 18.992 26.4281 19.336 26.1401 19.64C25.8681 19.928 25.5241 20.152 25.1081 20.312C24.6921 20.488 24.2201 20.576 23.6921 20.576H21.1481C20.1721 20.576 19.3641 20.272 18.7241 19.664C18.0841 19.056 17.7641 18.2 17.7641 17.096V13.352ZM19.3961 16.832C19.3961 17.184 19.4281 17.52 19.4921 17.84C19.5721 18.16 19.7001 18.448 19.8761 18.704C20.0681 18.944 20.3241 19.136 20.6441 19.28C20.9641 19.424 21.3801 19.496 21.8921 19.496H23.1161C23.5321 19.496 23.8761 19.416 24.1481 19.256C24.4361 19.096 24.6681 18.896 24.8441 18.656C25.0201 18.4 25.1481 18.128 25.2281 17.84C25.3081 17.536 25.3481 17.24 25.3481 16.952V13.952C25.3481 13.216 25.1161 12.6 24.6521 12.104C24.1881 11.592 23.5641 11.336 22.7801 11.336H22.0601C21.7081 11.336 21.3721 11.392 21.0521 11.504C20.7321 11.6 20.4441 11.76 20.1881 11.984C19.9481 12.192 19.7561 12.464 19.6121 12.8C19.4681 13.136 19.3961 13.528 19.3961 13.976V16.832ZM29.5582 9.704H31.5502V10.856C31.8862 10.632 32.2702 10.472 32.7022 10.376C33.1502 10.264 33.7422 10.208 34.4782 10.208H35.3902C36.5262 10.208 37.4462 10.544 38.1502 11.216C38.8702 11.888 39.2302 12.792 39.2302 13.928V20.576H37.8862V14.336C37.8862 13.984 37.8302 13.648 37.7182 13.328C37.6062 13.008 37.4382 12.728 37.2142 12.488C36.9902 12.248 36.7102 12.064 36.3742 11.936C36.0382 11.792 35.6462 11.72 35.1982 11.72H34.4302C34.0462 11.72 33.6782 11.776 33.3262 11.888C32.9742 11.984 32.6622 12.128 32.3902 12.32C32.1342 12.496 31.9262 12.72 31.7662 12.992C31.6222 13.248 31.5502 13.528 31.5502 13.832V20.576H29.5582V9.704ZM42.0476 13.688C42.0476 13.272 42.1196 12.888 42.2636 12.536C42.4236 12.184 42.6316 11.88 42.8876 11.624C43.1596 11.352 43.4716 11.144 43.8236 11C44.1756 10.856 44.5436 10.784 44.9276 10.784H46.3436C46.8396 10.784 47.3356 10.872 47.8316 11.048C48.3276 11.208 48.6556 11.448 48.8156 11.768V9.944H50.4236V21.944C50.4236 22.504 50.3436 22.976 50.1836 23.36C50.0236 23.76 49.8076 24.08 49.5356 24.32C49.2796 24.576 48.9756 24.76 48.6236 24.872C48.2716 25 47.8956 25.064 47.4956 25.064H44.9996C44.3276 25.064 43.7356 24.84 43.2236 24.392C42.7116 23.944 42.4396 23.264 42.4076 22.352H43.8476C43.8636 22.544 43.8956 22.736 43.9436 22.928C44.0076 23.136 44.1036 23.32 44.2316 23.48C44.3756 23.656 44.5436 23.8 44.7356 23.912C44.9436 24.024 45.1996 24.08 45.5036 24.08H46.8716C47.5756 24.08 48.0716 23.904 48.3596 23.552C48.6636 23.216 48.8156 22.768 48.8156 22.208V19.52C48.7196 19.712 48.5756 19.872 48.3836 20C48.2076 20.144 48.0156 20.256 47.8076 20.336C47.6156 20.416 47.4076 20.472 47.1836 20.504C46.9756 20.536 46.7916 20.552 46.6316 20.552H44.8076C44.4396 20.552 44.0876 20.496 43.7516 20.384C43.4316 20.272 43.1436 20.104 42.8876 19.88C42.6316 19.64 42.4236 19.344 42.2636 18.992C42.1196 18.64 42.0476 18.232 42.0476 17.768V13.688ZM43.4876 17.192C43.4876 17.928 43.6316 18.528 43.9196 18.992C44.2076 19.44 44.7116 19.664 45.4316 19.664H46.5356C46.8076 19.664 47.0716 19.616 47.3276 19.52C47.5996 19.424 47.8316 19.288 48.0236 19.112C48.2316 18.92 48.3916 18.688 48.5036 18.416C48.6316 18.128 48.6956 17.792 48.6956 17.408V13.976C48.6956 13.592 48.6156 13.272 48.4556 13.016C48.2956 12.744 48.0876 12.52 47.8316 12.344C47.5916 12.168 47.3196 12.04 47.0156 11.96C46.7276 11.88 46.4476 11.84 46.1756 11.84H45.7436C45.0556 11.84 44.5036 12.032 44.0876 12.416C43.6876 12.8 43.4876 13.384 43.4876 14.168V17.192ZM53.1044 18.224C53.8244 18.656 54.5524 19 55.2884 19.256C56.0244 19.496 56.7284 19.616 57.4004 19.616C58.0404 19.616 58.5764 19.512 59.0084 19.304C59.4564 19.096 59.7524 18.712 59.8964 18.152C60.0084 17.72 60.0004 17.36 59.8724 17.072C59.7444 16.768 59.5444 16.52 59.2724 16.328C59.0004 16.12 58.6804 15.96 58.3124 15.848C57.9604 15.72 57.6084 15.616 57.2564 15.536C56.6964 15.408 56.1684 15.272 55.6724 15.128C55.1764 14.984 54.7364 14.808 54.3524 14.6C53.9844 14.376 53.6884 14.112 53.4644 13.808C53.2404 13.488 53.1284 13.096 53.1284 12.632C53.1284 11.992 53.2804 11.456 53.5844 11.024C53.9044 10.592 54.3204 10.256 54.8324 10.016C55.3444 9.776 55.9284 9.632 56.5844 9.584C57.2404 9.536 57.9204 9.576 58.6244 9.704C59.4884 9.864 60.2404 10.168 60.8804 10.616V12.008C60.5444 11.752 60.1444 11.528 59.6804 11.336C59.2164 11.144 58.7364 11.008 58.2404 10.928C57.7604 10.832 57.2884 10.816 56.8244 10.88C56.3764 10.928 56.0004 11.072 55.6964 11.312C55.4244 11.536 55.2324 11.784 55.1204 12.056C55.0244 12.312 55.0004 12.568 55.0484 12.824C55.1124 13.064 55.2564 13.296 55.4804 13.52C55.7204 13.728 56.0324 13.88 56.4164 13.976C57.1044 14.152 57.6964 14.312 58.1924 14.456C58.7044 14.6 59.2164 14.784 59.7284 15.008C60.4484 15.312 60.9684 15.68 61.2884 16.112C61.6244 16.544 61.7604 17.136 61.6964 17.888C61.6484 18.4 61.5044 18.84 61.2644 19.208C61.0244 19.576 60.7204 19.888 60.3524 20.144C59.9844 20.4 59.5604 20.584 59.0804 20.696C58.6004 20.824 58.0964 20.888 57.5684 20.888C57.2164 20.888 56.8404 20.856 56.4404 20.792C56.0564 20.744 55.6644 20.656 55.2644 20.528C54.8644 20.416 54.4804 20.272 54.1124 20.096C53.7444 19.92 53.4084 19.712 53.1044 19.472V18.224ZM64.5309 13.64C64.5309 13.176 64.6029 12.752 64.7469 12.368C64.9069 11.968 65.1229 11.624 65.3949 11.336C65.6829 11.048 66.0109 10.824 66.3789 10.664C66.7629 10.488 67.1709 10.4 67.6029 10.4H68.5629C69.2509 10.4 69.8349 10.504 70.3149 10.712C70.8109 10.904 71.2189 11.288 71.5389 11.864V10.04H73.1469V16.496C73.1469 17.264 73.2669 18.008 73.5069 18.728C73.7469 19.432 74.0749 20.096 74.4909 20.72H72.9069L72.0189 18.944C71.8429 19.408 71.4989 19.792 70.9869 20.096C70.4749 20.4 69.9469 20.552 69.4029 20.552H67.3149C66.9469 20.552 66.5949 20.48 66.2589 20.336C65.9229 20.192 65.6269 19.984 65.3709 19.712C65.1149 19.44 64.9069 19.112 64.7469 18.728C64.6029 18.328 64.5309 17.888 64.5309 17.408V13.64ZM65.9469 17.048C65.9469 17.304 65.9709 17.584 66.0189 17.888C66.0669 18.176 66.1709 18.448 66.3309 18.704C66.4909 18.944 66.7069 19.152 66.9789 19.328C67.2669 19.488 67.6509 19.568 68.1309 19.568H68.8029C69.4749 19.568 70.0429 19.384 70.5069 19.016C70.9709 18.632 71.2029 17.992 71.2029 17.096V14.312C71.2029 13.848 71.1309 13.44 70.9869 13.088C70.8429 12.72 70.6509 12.416 70.4109 12.176C70.1709 11.92 69.8989 11.728 69.5949 11.6C69.2909 11.472 68.9789 11.408 68.6589 11.408H68.1549C67.8669 11.408 67.5869 11.456 67.3149 11.552C67.0589 11.648 66.8269 11.8 66.6189 12.008C66.4269 12.216 66.2669 12.472 66.1389 12.776C66.0109 13.08 65.9469 13.448 65.9469 13.88V17.048ZM76.3863 9.704H78.3783V10.856C78.7143 10.632 79.0983 10.472 79.5303 10.376C79.9783 10.264 80.5703 10.208 81.3063 10.208H82.2183C83.3543 10.208 84.2743 10.544 84.9783 11.216C85.6983 11.888 86.0583 12.792 86.0583 13.928V20.576H84.7143V14.336C84.7143 13.984 84.6583 13.648 84.5463 13.328C84.4343 13.008 84.2663 12.728 84.0423 12.488C83.8183 12.248 83.5383 12.064 83.2023 11.936C82.8663 11.792 82.4743 11.72 82.0263 11.72H81.2583C80.8743 11.72 80.5063 11.776 80.1543 11.888C79.8023 11.984 79.4903 12.128 79.2183 12.32C78.9623 12.496 78.7543 12.72 78.5943 12.992C78.4503 13.248 78.3783 13.528 78.3783 13.832V20.576H76.3863V9.704Z" fill="black"/>
</svg>
