<svg width="22" height="17" viewBox="0 0 22 17" fill="none" xmlns="http://www.w3.org/2000/svg">
<path d="M6.31836 5.18911H7.37142V1.03776H6.31836C5.15473 1.03776 4.21225 1.96697 4.21225 3.11344C4.21225 4.2599 5.15473 5.18911 6.31836 5.18911ZM0 13.4918C0 14.6383 0.942491 15.5675 2.10612 15.5675H3.15918V11.4161H2.10612C0.942491 11.4161 0 12.3454 0 13.4918ZM11.1054 9.34047C9.95669 9.34047 8.59913 9.76598 7.65839 10.3783C6.84315 10.9096 6.19376 11.4161 4.21225 11.4161V15.5675L6.10512 16.0855C6.96776 16.3216 7.84969 16.511 8.7483 16.5736C9.82418 16.6485 10.9071 16.5953 11.9593 16.3725C15.5625 15.6097 16.849 13.9206 16.849 12.454C16.849 10.3783 14.0786 9.34047 11.1054 9.34047ZM16.1715 0.233093C15.1193 0.010304 14.0364 -0.0431966 12.9605 0.0320121C12.0619 0.0946283 11.18 0.284034 10.3174 0.519796L8.42449 1.03776V5.18911C10.406 5.18911 11.0554 5.69575 11.8706 6.22695C12.8114 6.83928 14.1689 7.26479 15.3177 7.26479C18.2908 7.26479 21.0612 6.22695 21.0612 4.15128C21.0612 2.68473 19.7747 0.995645 16.1715 0.233093Z" fill="#1B8F6E"/>
</svg>
