<svg
  id="svg2"
  xmlns="http://www.w3.org/2000/svg"
  viewBox="0 0 214 165"
>
  <g transform="translate(-110.000000, -121.000000)">
    <g transform="translate(110.000000, 121.000000)">
      <path
        fill="#FFFFFF"
        d="M160.4,88.6c0.2,22.5,20.1,30,20.3,30.1c-0.2,0.5-3.2,11.2-10.4,22.3c-6.3,9.2-12.9,18.4-23.3,18.6
        c-10.2,0.2-13.5-6-25.1-6c-11.5,0-15.2,5.8-25.2,6.2c-10.1,0.4-17.8-10-24.1-19.1c-13.1-18.9-23.2-53.4-9.7-76.7
        c6.7-11.7,18.7-19.1,31.7-19.3c9.9-0.2,19.2,6.6,25.1,6.6c5.8,0,17-8.2,28.6-7c4.9,0.2,18.7,2,27.5,15.1
        C181.1,66.8,160.4,77.6,160.4,88.6z"
      />
      <path
        fill="#FFFFFF"
        d="M140.7,39.4c5.3-6.5,8.9-15.6,7.9-24.6c-7.7,0.3-16.9,5.1-22.3,11.6c-4.8,5.7-9.1,14.9-7.9,23.6
        C127.6,50.5,135.4,45.6,140.7,39.4z"
      />
    </g>
  </g>
</svg>
