<svg width="214" height="146" viewBox="0 0 214 146" fill="none" xmlns="http://www.w3.org/2000/svg">
<path d="M20.0455 16.352H26.5015C27.1255 16.352 27.7735 16.424 28.4455 16.568C29.1335 16.712 29.7495 16.968 30.2935 17.336C30.8535 17.704 31.3095 18.216 31.6615 18.872C32.0295 19.528 32.2135 20.36 32.2135 21.368V27.248C32.2135 28.192 32.0455 29 31.7095 29.672C31.3895 30.344 30.9495 30.896 30.3895 31.328C29.8295 31.76 29.1815 32.072 28.4455 32.264C27.7095 32.472 26.9255 32.576 26.0935 32.576H20.0455V16.352ZM26.2135 30.488C26.7895 30.488 27.3415 30.44 27.8695 30.344C28.3975 30.232 28.8615 30.048 29.2615 29.792C29.6615 29.52 29.9815 29.168 30.2215 28.736C30.4615 28.288 30.5815 27.728 30.5815 27.056V22.088C30.5815 20.68 30.2135 19.696 29.4775 19.136C28.7415 18.56 27.5815 18.272 25.9975 18.272H22.2295V30.488H26.2135ZM34.8937 25.352C34.8937 24.904 34.9817 24.48 35.1577 24.08C35.3497 23.664 35.6137 23.304 35.9497 23C36.2857 22.68 36.6857 22.432 37.1497 22.256C37.6137 22.064 38.1257 21.968 38.6857 21.968H40.1737C40.7977 21.968 41.3577 22.072 41.8537 22.28C42.3497 22.472 42.7657 22.728 43.1017 23.048C43.4377 23.368 43.6937 23.736 43.8697 24.152C44.0457 24.568 44.1337 25 44.1337 25.448V29.336C44.1337 29.784 44.0617 30.208 43.9177 30.608C43.7737 30.992 43.5577 31.336 43.2697 31.64C42.9977 31.928 42.6537 32.152 42.2377 32.312C41.8217 32.488 41.3497 32.576 40.8217 32.576H38.2777C37.3017 32.576 36.4937 32.272 35.8537 31.664C35.2137 31.056 34.8937 30.2 34.8937 29.096V25.352ZM36.5257 28.832C36.5257 29.184 36.5577 29.52 36.6217 29.84C36.7017 30.16 36.8297 30.448 37.0057 30.704C37.1977 30.944 37.4537 31.136 37.7737 31.28C38.0937 31.424 38.5097 31.496 39.0217 31.496H40.2457C40.6617 31.496 41.0057 31.416 41.2777 31.256C41.5657 31.096 41.7977 30.896 41.9737 30.656C42.1497 30.4 42.2777 30.128 42.3577 29.84C42.4377 29.536 42.4777 29.24 42.4777 28.952V25.952C42.4777 25.216 42.2457 24.6 41.7817 24.104C41.3177 23.592 40.6937 23.336 39.9097 23.336H39.1897C38.8377 23.336 38.5017 23.392 38.1817 23.504C37.8617 23.6 37.5737 23.76 37.3177 23.984C37.0777 24.192 36.8857 24.464 36.7417 24.8C36.5977 25.136 36.5257 25.528 36.5257 25.976V28.832ZM46.6878 21.704H48.6798V22.856C49.0158 22.632 49.3998 22.472 49.8318 22.376C50.2798 22.264 50.8718 22.208 51.6078 22.208H52.5198C53.6558 22.208 54.5758 22.544 55.2798 23.216C55.9998 23.888 56.3598 24.792 56.3598 25.928V32.576H55.0158V26.336C55.0158 25.984 54.9598 25.648 54.8478 25.328C54.7358 25.008 54.5678 24.728 54.3438 24.488C54.1198 24.248 53.8398 24.064 53.5038 23.936C53.1678 23.792 52.7758 23.72 52.3278 23.72H51.5598C51.1758 23.72 50.8078 23.776 50.4558 23.888C50.1038 23.984 49.7918 24.128 49.5198 24.32C49.2638 24.496 49.0558 24.72 48.8958 24.992C48.7518 25.248 48.6798 25.528 48.6798 25.832V32.576H46.6878V21.704ZM59.1772 25.688C59.1772 25.272 59.2492 24.888 59.3932 24.536C59.5532 24.184 59.7612 23.88 60.0172 23.624C60.2892 23.352 60.6012 23.144 60.9532 23C61.3052 22.856 61.6732 22.784 62.0572 22.784H63.4732C63.9692 22.784 64.4652 22.872 64.9612 23.048C65.4572 23.208 65.7852 23.448 65.9452 23.768V21.944H67.5532V33.944C67.5532 34.504 67.4732 34.976 67.3132 35.36C67.1532 35.76 66.9372 36.08 66.6652 36.32C66.4092 36.576 66.1052 36.76 65.7532 36.872C65.4012 37 65.0252 37.064 64.6252 37.064H62.1292C61.4572 37.064 60.8652 36.84 60.3532 36.392C59.8412 35.944 59.5692 35.264 59.5372 34.352H60.9772C60.9932 34.544 61.0252 34.736 61.0732 34.928C61.1372 35.136 61.2332 35.32 61.3612 35.48C61.5052 35.656 61.6732 35.8 61.8652 35.912C62.0732 36.024 62.3292 36.08 62.6332 36.08H64.0012C64.7052 36.08 65.2012 35.904 65.4892 35.552C65.7932 35.216 65.9452 34.768 65.9452 34.208V31.52C65.8492 31.712 65.7052 31.872 65.5132 32C65.3372 32.144 65.1452 32.256 64.9372 32.336C64.7452 32.416 64.5372 32.472 64.3132 32.504C64.1052 32.536 63.9212 32.552 63.7612 32.552H61.9372C61.5692 32.552 61.2172 32.496 60.8812 32.384C60.5612 32.272 60.2732 32.104 60.0172 31.88C59.7612 31.64 59.5532 31.344 59.3932 30.992C59.2492 30.64 59.1772 30.232 59.1772 29.768V25.688ZM60.6172 29.192C60.6172 29.928 60.7612 30.528 61.0492 30.992C61.3372 31.44 61.8412 31.664 62.5612 31.664H63.6652C63.9372 31.664 64.2012 31.616 64.4572 31.52C64.7292 31.424 64.9612 31.288 65.1532 31.112C65.3612 30.92 65.5212 30.688 65.6332 30.416C65.7612 30.128 65.8252 29.792 65.8252 29.408V25.976C65.8252 25.592 65.7452 25.272 65.5852 25.016C65.4252 24.744 65.2172 24.52 64.9612 24.344C64.7212 24.168 64.4492 24.04 64.1452 23.96C63.8572 23.88 63.5772 23.84 63.3052 23.84H62.8732C62.1852 23.84 61.6332 24.032 61.2172 24.416C60.8172 24.8 60.6172 25.384 60.6172 26.168V29.192ZM70.234 30.224C70.954 30.656 71.682 31 72.418 31.256C73.154 31.496 73.858 31.616 74.53 31.616C75.17 31.616 75.706 31.512 76.138 31.304C76.586 31.096 76.882 30.712 77.026 30.152C77.138 29.72 77.13 29.36 77.002 29.072C76.874 28.768 76.674 28.52 76.402 28.328C76.13 28.12 75.81 27.96 75.442 27.848C75.09 27.72 74.738 27.616 74.386 27.536C73.826 27.408 73.298 27.272 72.802 27.128C72.306 26.984 71.866 26.808 71.482 26.6C71.114 26.376 70.818 26.112 70.594 25.808C70.37 25.488 70.258 25.096 70.258 24.632C70.258 23.992 70.41 23.456 70.714 23.024C71.034 22.592 71.45 22.256 71.962 22.016C72.474 21.776 73.058 21.632 73.714 21.584C74.37 21.536 75.05 21.576 75.754 21.704C76.618 21.864 77.37 22.168 78.01 22.616V24.008C77.674 23.752 77.274 23.528 76.81 23.336C76.346 23.144 75.866 23.008 75.37 22.928C74.89 22.832 74.418 22.816 73.954 22.88C73.506 22.928 73.13 23.072 72.826 23.312C72.554 23.536 72.362 23.784 72.25 24.056C72.154 24.312 72.13 24.568 72.178 24.824C72.242 25.064 72.386 25.296 72.61 25.52C72.85 25.728 73.162 25.88 73.546 25.976C74.234 26.152 74.826 26.312 75.322 26.456C75.834 26.6 76.346 26.784 76.858 27.008C77.578 27.312 78.098 27.68 78.418 28.112C78.754 28.544 78.89 29.136 78.826 29.888C78.778 30.4 78.634 30.84 78.394 31.208C78.154 31.576 77.85 31.888 77.482 32.144C77.114 32.4 76.69 32.584 76.21 32.696C75.73 32.824 75.226 32.888 74.698 32.888C74.346 32.888 73.97 32.856 73.57 32.792C73.186 32.744 72.794 32.656 72.394 32.528C71.994 32.416 71.61 32.272 71.242 32.096C70.874 31.92 70.538 31.712 70.234 31.472V30.224ZM81.6605 25.64C81.6605 25.176 81.7325 24.752 81.8765 24.368C82.0365 23.968 82.2525 23.624 82.5245 23.336C82.8125 23.048 83.1405 22.824 83.5085 22.664C83.8925 22.488 84.3005 22.4 84.7325 22.4H85.6925C86.3805 22.4 86.9645 22.504 87.4445 22.712C87.9405 22.904 88.3485 23.288 88.6685 23.864V22.04H90.2765V28.496C90.2765 29.264 90.3965 30.008 90.6365 30.728C90.8765 31.432 91.2045 32.096 91.6205 32.72H90.0365L89.1485 30.944C88.9725 31.408 88.6285 31.792 88.1165 32.096C87.6045 32.4 87.0765 32.552 86.5325 32.552H84.4445C84.0765 32.552 83.7245 32.48 83.3885 32.336C83.0525 32.192 82.7565 31.984 82.5005 31.712C82.2445 31.44 82.0365 31.112 81.8765 30.728C81.7325 30.328 81.6605 29.888 81.6605 29.408V25.64ZM83.0765 29.048C83.0765 29.304 83.1005 29.584 83.1485 29.888C83.1965 30.176 83.3005 30.448 83.4605 30.704C83.6205 30.944 83.8365 31.152 84.1085 31.328C84.3965 31.488 84.7805 31.568 85.2605 31.568H85.9325C86.6045 31.568 87.1725 31.384 87.6365 31.016C88.1005 30.632 88.3325 29.992 88.3325 29.096V26.312C88.3325 25.848 88.2605 25.44 88.1165 25.088C87.9725 24.72 87.7805 24.416 87.5405 24.176C87.3005 23.92 87.0285 23.728 86.7245 23.6C86.4205 23.472 86.1085 23.408 85.7885 23.408H85.2845C84.9965 23.408 84.7165 23.456 84.4445 23.552C84.1885 23.648 83.9565 23.8 83.7485 24.008C83.5565 24.216 83.3965 24.472 83.2685 24.776C83.1405 25.08 83.0765 25.448 83.0765 25.88V29.048ZM93.5159 21.704H95.5079V22.856C95.8439 22.632 96.2279 22.472 96.6599 22.376C97.1079 22.264 97.6999 22.208 98.4359 22.208H99.3479C100.484 22.208 101.404 22.544 102.108 23.216C102.828 23.888 103.188 24.792 103.188 25.928V32.576H101.844V26.336C101.844 25.984 101.788 25.648 101.676 25.328C101.564 25.008 101.396 24.728 101.172 24.488C100.948 24.248 100.668 24.064 100.332 23.936C99.9959 23.792 99.6039 23.72 99.1559 23.72H98.3879C98.0039 23.72 97.6359 23.776 97.2839 23.888C96.9319 23.984 96.6199 24.128 96.3479 24.32C96.0919 24.496 95.8839 24.72 95.7239 24.992C95.5799 25.248 95.5079 25.528 95.5079 25.832V32.576H93.5159V21.704Z" fill="black"/>
<g filter="url(#filter0_d_773_574)">
<path d="M90.4473 58.9153C87.8908 59.9791 84.6699 58.8971 82.0086 58.3592C72.5554 56.4486 61.6994 54.952 52.0451 54.5278C46.4123 54.2804 40.9737 54.4986 35.4122 55.3312C28.3572 56.3874 24.8086 59.0911 19.1463 63.9826C10.2362 71.6797 5.53775 85.8814 7.40551 97.4759C8.44394 103.922 8.92025 129.632 16.7615 131.216C39.3734 135.787 63.7207 134.553 86.656 134.553C98.609 134.553 113.874 137.702 124.569 132.082C149.519 118.97 165.152 91.2658 187.37 74.4261C192.599 70.4628 196.89 65.443 202.23 61.6344C203.623 60.6406 205.905 59.1002 206.877 57.5558C207.629 56.3624 193.642 28.3216 193.5 28M182.356 7.74844C179.152 1.2735 176.07 2.67741 169.453 4.65865C160.447 7.35531 149.157 11.893 139.979 8.86076C137.871 8.1645 128.046 3.08242 126.648 4.10248C119.95 8.99114 118.438 22.6918 115.213 29.9331C108.982 43.9263 100.038 51.2888 87.1452 57.803" stroke="#81C987" stroke-width="5" stroke-linecap="round"/>
</g>
<path d="M80.4175 59.1729C82.0637 57.7096 87.3899 57.6333 89.4541 58.1248C91.1597 58.5309 93.0791 59.0293 94.578 60.0113C98.1018 62.32 100.778 66.4965 103.195 69.7933C103.975 70.8564 106.344 76.5441 104.313 72.9142C98.6075 62.7126 87.1221 56.2383 75.3867 56.2383" stroke="#81C987" stroke-width="5" stroke-linecap="round"/>
<circle cx="180" cy="9" r="6" fill="#303030"/>
<circle cx="190" cy="26" r="6" fill="#303030"/>
<defs>
<filter id="filter0_d_773_574" x="0.500732" y="0.5" width="212.906" height="145.433" filterUnits="userSpaceOnUse" color-interpolation-filters="sRGB">
<feFlood flood-opacity="0" result="BackgroundImageFix"/>
<feColorMatrix in="SourceAlpha" type="matrix" values="0 0 0 0 0 0 0 0 0 0 0 0 0 0 0 0 0 0 127 0" result="hardAlpha"/>
<feOffset dy="4"/>
<feGaussianBlur stdDeviation="2"/>
<feComposite in2="hardAlpha" operator="out"/>
<feColorMatrix type="matrix" values="0 0 0 0 0 0 0 0 0 0 0 0 0 0 0 0 0 0 0.25 0"/>
<feBlend mode="normal" in2="BackgroundImageFix" result="effect1_dropShadow_773_574"/>
<feBlend mode="normal" in="SourceGraphic" in2="effect1_dropShadow_773_574" result="shape"/>
</filter>
</defs>
</svg>
