<svg width="29" height="27" viewBox="0 0 29 27" fill="currentColor" xmlns="http://www.w3.org/2000/svg">
<path d="M14.5 0.611084C10.9963 0.611084 8.15625 3.45117 8.15625 6.95483C8.15625 9.78737 12.3023 14.95 13.8908 16.8239C14.2125 17.2035 14.788 17.2035 15.1092 16.8239C16.6977 14.95 20.8438 9.78737 20.8438 6.95483C20.8438 3.45117 18.0037 0.611084 14.5 0.611084ZM14.5 9.06942C13.3319 9.06942 12.3854 8.12289 12.3854 6.95483C12.3854 5.78678 13.3319 4.84025 14.5 4.84025C15.6681 4.84025 16.6146 5.78678 16.6146 6.95483C16.6146 8.12289 15.6681 9.06942 14.5 9.06942ZM1.01299 11.4836C0.714013 11.6031 0.457722 11.8096 0.277166 12.0762C0.0966106 12.3428 7.16042e-05 12.6574 0 12.9794L0 25.5823C0 26.1522 0.575469 26.5419 1.10462 26.3305L8.05556 23.1666V11.4317C7.61049 10.6272 7.24648 9.84376 6.98568 9.09459L1.01299 11.4836ZM14.5 18.7195C13.7916 18.7195 13.1215 18.4083 12.6618 17.8656C11.672 16.6975 10.6192 15.3674 9.66667 14.0029V23.1661L19.3333 26.3884V14.0034C18.3808 15.3674 17.3285 16.698 16.3382 17.8661C15.8785 18.4083 15.2084 18.7195 14.5 18.7195ZM27.8954 8.72504L20.9444 11.8889V26.3889L27.987 23.5719C28.286 23.4524 28.5424 23.246 28.7229 22.9794C28.9035 22.7128 29 22.3981 29 22.0761V9.4732C29 8.90327 28.4245 8.51358 27.8954 8.72504Z" fill="black"/>
</svg>
