<svg width="95" height="95" viewBox="0 0 95 95" fill="none" xmlns="http://www.w3.org/2000/svg">
<circle cx="47.5" cy="47.5" r="47.25" fill="white" stroke="black" stroke-width="0.5"/>
<path d="M6.04553 39.352H12.5015C13.1255 39.352 13.7735 39.424 14.4455 39.568C15.1335 39.712 15.7495 39.968 16.2935 40.336C16.8535 40.704 17.3095 41.216 17.6615 41.872C18.0295 42.528 18.2135 43.36 18.2135 44.368V50.248C18.2135 51.192 18.0455 52 17.7095 52.672C17.3895 53.344 16.9495 53.896 16.3895 54.328C15.8295 54.76 15.1815 55.072 14.4455 55.264C13.7095 55.472 12.9255 55.576 12.0935 55.576H6.04553V39.352ZM12.2135 53.488C12.7895 53.488 13.3415 53.44 13.8695 53.344C14.3975 53.232 14.8615 53.048 15.2615 52.792C15.6615 52.52 15.9815 52.168 16.2215 51.736C16.4615 51.288 16.5815 50.728 16.5815 50.056V45.088C16.5815 43.68 16.2135 42.696 15.4775 42.136C14.7415 41.56 13.5815 41.272 11.9975 41.272H8.22953V53.488H12.2135ZM20.8937 48.352C20.8937 47.904 20.9817 47.48 21.1577 47.08C21.3497 46.664 21.6137 46.304 21.9497 46C22.2857 45.68 22.6857 45.432 23.1497 45.256C23.6137 45.064 24.1257 44.968 24.6857 44.968H26.1737C26.7977 44.968 27.3577 45.072 27.8537 45.28C28.3497 45.472 28.7657 45.728 29.1017 46.048C29.4377 46.368 29.6937 46.736 29.8697 47.152C30.0457 47.568 30.1337 48 30.1337 48.448V52.336C30.1337 52.784 30.0617 53.208 29.9177 53.608C29.7737 53.992 29.5577 54.336 29.2697 54.64C28.9977 54.928 28.6537 55.152 28.2377 55.312C27.8217 55.488 27.3497 55.576 26.8217 55.576H24.2777C23.3017 55.576 22.4937 55.272 21.8537 54.664C21.2137 54.056 20.8937 53.2 20.8937 52.096V48.352ZM22.5257 51.832C22.5257 52.184 22.5577 52.52 22.6217 52.84C22.7017 53.16 22.8297 53.448 23.0057 53.704C23.1977 53.944 23.4537 54.136 23.7737 54.28C24.0937 54.424 24.5097 54.496 25.0217 54.496H26.2457C26.6617 54.496 27.0057 54.416 27.2777 54.256C27.5657 54.096 27.7977 53.896 27.9737 53.656C28.1497 53.4 28.2777 53.128 28.3577 52.84C28.4377 52.536 28.4777 52.24 28.4777 51.952V48.952C28.4777 48.216 28.2457 47.6 27.7817 47.104C27.3177 46.592 26.6937 46.336 25.9097 46.336H25.1897C24.8377 46.336 24.5017 46.392 24.1817 46.504C23.8617 46.6 23.5737 46.76 23.3177 46.984C23.0777 47.192 22.8857 47.464 22.7417 47.8C22.5977 48.136 22.5257 48.528 22.5257 48.976V51.832ZM32.6878 44.704H34.6798V45.856C35.0158 45.632 35.3998 45.472 35.8318 45.376C36.2798 45.264 36.8718 45.208 37.6078 45.208H38.5198C39.6558 45.208 40.5758 45.544 41.2798 46.216C41.9998 46.888 42.3598 47.792 42.3598 48.928V55.576H41.0158V49.336C41.0158 48.984 40.9598 48.648 40.8478 48.328C40.7358 48.008 40.5678 47.728 40.3438 47.488C40.1198 47.248 39.8398 47.064 39.5038 46.936C39.1678 46.792 38.7758 46.72 38.3278 46.72H37.5598C37.1758 46.72 36.8078 46.776 36.4558 46.888C36.1038 46.984 35.7918 47.128 35.5198 47.32C35.2638 47.496 35.0558 47.72 34.8958 47.992C34.7518 48.248 34.6798 48.528 34.6798 48.832V55.576H32.6878V44.704ZM45.1772 48.688C45.1772 48.272 45.2492 47.888 45.3932 47.536C45.5532 47.184 45.7612 46.88 46.0172 46.624C46.2892 46.352 46.6012 46.144 46.9532 46C47.3052 45.856 47.6732 45.784 48.0572 45.784H49.4732C49.9692 45.784 50.4652 45.872 50.9612 46.048C51.4572 46.208 51.7852 46.448 51.9452 46.768V44.944H53.5532V56.944C53.5532 57.504 53.4732 57.976 53.3132 58.36C53.1532 58.76 52.9372 59.08 52.6652 59.32C52.4092 59.576 52.1052 59.76 51.7532 59.872C51.4012 60 51.0252 60.064 50.6252 60.064H48.1292C47.4572 60.064 46.8652 59.84 46.3532 59.392C45.8412 58.944 45.5692 58.264 45.5372 57.352H46.9772C46.9932 57.544 47.0252 57.736 47.0732 57.928C47.1372 58.136 47.2332 58.32 47.3612 58.48C47.5052 58.656 47.6732 58.8 47.8652 58.912C48.0732 59.024 48.3292 59.08 48.6332 59.08H50.0012C50.7052 59.08 51.2012 58.904 51.4892 58.552C51.7932 58.216 51.9452 57.768 51.9452 57.208V54.52C51.8492 54.712 51.7052 54.872 51.5132 55C51.3372 55.144 51.1452 55.256 50.9372 55.336C50.7452 55.416 50.5372 55.472 50.3132 55.504C50.1052 55.536 49.9212 55.552 49.7612 55.552H47.9372C47.5692 55.552 47.2172 55.496 46.8812 55.384C46.5612 55.272 46.2732 55.104 46.0172 54.88C45.7612 54.64 45.5532 54.344 45.3932 53.992C45.2492 53.64 45.1772 53.232 45.1772 52.768V48.688ZM46.6172 52.192C46.6172 52.928 46.7612 53.528 47.0492 53.992C47.3372 54.44 47.8412 54.664 48.5612 54.664H49.6652C49.9372 54.664 50.2012 54.616 50.4572 54.52C50.7292 54.424 50.9612 54.288 51.1532 54.112C51.3612 53.92 51.5212 53.688 51.6332 53.416C51.7612 53.128 51.8252 52.792 51.8252 52.408V48.976C51.8252 48.592 51.7452 48.272 51.5852 48.016C51.4252 47.744 51.2172 47.52 50.9612 47.344C50.7212 47.168 50.4492 47.04 50.1452 46.96C49.8572 46.88 49.5772 46.84 49.3052 46.84H48.8732C48.1852 46.84 47.6332 47.032 47.2172 47.416C46.8172 47.8 46.6172 48.384 46.6172 49.168V52.192ZM56.234 53.224C56.954 53.656 57.682 54 58.418 54.256C59.154 54.496 59.858 54.616 60.53 54.616C61.17 54.616 61.706 54.512 62.138 54.304C62.586 54.096 62.882 53.712 63.026 53.152C63.138 52.72 63.13 52.36 63.002 52.072C62.874 51.768 62.674 51.52 62.402 51.328C62.13 51.12 61.81 50.96 61.442 50.848C61.09 50.72 60.738 50.616 60.386 50.536C59.826 50.408 59.298 50.272 58.802 50.128C58.306 49.984 57.866 49.808 57.482 49.6C57.114 49.376 56.818 49.112 56.594 48.808C56.37 48.488 56.258 48.096 56.258 47.632C56.258 46.992 56.41 46.456 56.714 46.024C57.034 45.592 57.45 45.256 57.962 45.016C58.474 44.776 59.058 44.632 59.714 44.584C60.37 44.536 61.05 44.576 61.754 44.704C62.618 44.864 63.37 45.168 64.01 45.616V47.008C63.674 46.752 63.274 46.528 62.81 46.336C62.346 46.144 61.866 46.008 61.37 45.928C60.89 45.832 60.418 45.816 59.954 45.88C59.506 45.928 59.13 46.072 58.826 46.312C58.554 46.536 58.362 46.784 58.25 47.056C58.154 47.312 58.13 47.568 58.178 47.824C58.242 48.064 58.386 48.296 58.61 48.52C58.85 48.728 59.162 48.88 59.546 48.976C60.234 49.152 60.826 49.312 61.322 49.456C61.834 49.6 62.346 49.784 62.858 50.008C63.578 50.312 64.098 50.68 64.418 51.112C64.754 51.544 64.89 52.136 64.826 52.888C64.778 53.4 64.634 53.84 64.394 54.208C64.154 54.576 63.85 54.888 63.482 55.144C63.114 55.4 62.69 55.584 62.21 55.696C61.73 55.824 61.226 55.888 60.698 55.888C60.346 55.888 59.97 55.856 59.57 55.792C59.186 55.744 58.794 55.656 58.394 55.528C57.994 55.416 57.61 55.272 57.242 55.096C56.874 54.92 56.538 54.712 56.234 54.472V53.224ZM67.6605 48.64C67.6605 48.176 67.7325 47.752 67.8765 47.368C68.0365 46.968 68.2525 46.624 68.5245 46.336C68.8125 46.048 69.1405 45.824 69.5085 45.664C69.8925 45.488 70.3005 45.4 70.7325 45.4H71.6925C72.3805 45.4 72.9645 45.504 73.4445 45.712C73.9405 45.904 74.3485 46.288 74.6685 46.864V45.04H76.2765V51.496C76.2765 52.264 76.3965 53.008 76.6365 53.728C76.8765 54.432 77.2045 55.096 77.6205 55.72H76.0365L75.1485 53.944C74.9725 54.408 74.6285 54.792 74.1165 55.096C73.6045 55.4 73.0765 55.552 72.5325 55.552H70.4445C70.0765 55.552 69.7245 55.48 69.3885 55.336C69.0525 55.192 68.7565 54.984 68.5005 54.712C68.2445 54.44 68.0365 54.112 67.8765 53.728C67.7325 53.328 67.6605 52.888 67.6605 52.408V48.64ZM69.0765 52.048C69.0765 52.304 69.1005 52.584 69.1485 52.888C69.1965 53.176 69.3005 53.448 69.4605 53.704C69.6205 53.944 69.8365 54.152 70.1085 54.328C70.3965 54.488 70.7805 54.568 71.2605 54.568H71.9325C72.6045 54.568 73.1725 54.384 73.6365 54.016C74.1005 53.632 74.3325 52.992 74.3325 52.096V49.312C74.3325 48.848 74.2605 48.44 74.1165 48.088C73.9725 47.72 73.7805 47.416 73.5405 47.176C73.3005 46.92 73.0285 46.728 72.7245 46.6C72.4205 46.472 72.1085 46.408 71.7885 46.408H71.2845C70.9965 46.408 70.7165 46.456 70.4445 46.552C70.1885 46.648 69.9565 46.8 69.7485 47.008C69.5565 47.216 69.3965 47.472 69.2685 47.776C69.1405 48.08 69.0765 48.448 69.0765 48.88V52.048ZM79.5159 44.704H81.5079V45.856C81.8439 45.632 82.2279 45.472 82.6599 45.376C83.1079 45.264 83.6999 45.208 84.4359 45.208H85.3479C86.4839 45.208 87.4039 45.544 88.1079 46.216C88.8279 46.888 89.1879 47.792 89.1879 48.928V55.576H87.8439V49.336C87.8439 48.984 87.7879 48.648 87.6759 48.328C87.5639 48.008 87.3959 47.728 87.1719 47.488C86.9479 47.248 86.6679 47.064 86.3319 46.936C85.9959 46.792 85.6039 46.72 85.1559 46.72H84.3879C84.0039 46.72 83.6359 46.776 83.2839 46.888C82.9319 46.984 82.6199 47.128 82.3479 47.32C82.0919 47.496 81.8839 47.72 81.7239 47.992C81.5799 48.248 81.5079 48.528 81.5079 48.832V55.576H79.5159V44.704Z" fill="black"/>
</svg>
