<svg width="95" height="95" viewBox="0 0 95 95" fill="none" xmlns="http://www.w3.org/2000/svg">
<circle cx="47.5" cy="47.5" r="47.25" fill="white" stroke="black" stroke-width="0.5"/>
<path d="M35.75 40.5C35.75 44.7417 34.6957 48.5699 33.0044 51.3295C31.3104 54.0933 29.0037 55.75 26.5 55.75C23.9963 55.75 21.6896 54.0933 19.9956 51.3295C18.3043 48.5699 17.25 44.7417 17.25 40.5C17.25 36.2583 18.3043 32.4301 19.9956 29.6705C21.6896 26.9067 23.9963 25.25 26.5 25.25C29.0037 25.25 31.3104 26.9067 33.0044 29.6705C34.6957 32.4301 35.75 36.2583 35.75 40.5Z" fill="white" stroke="black" stroke-width="0.5"/>
<ellipse cx="22.5" cy="40.5" rx="5.5" ry="12.5" fill="#3B3B3B"/>
<path d="M66.75 40.5C66.75 44.7464 65.8056 48.5784 64.2912 51.3399C62.7718 54.1106 60.7135 55.75 58.5 55.75C56.2865 55.75 54.2282 54.1106 52.7088 51.3399C51.1944 48.5784 50.25 44.7464 50.25 40.5C50.25 36.2536 51.1944 32.4216 52.7088 29.6601C54.2282 26.8894 56.2865 25.25 58.5 25.25C60.7135 25.25 62.7718 26.8894 64.2912 29.6601C65.8056 32.4216 66.75 36.2536 66.75 40.5Z" fill="white" stroke="black" stroke-width="0.5"/>
<ellipse cx="55.5" cy="40.5" rx="5.5" ry="12.5" fill="#3B3B3B"/>
<path d="M32 73C49.4071 72.9765 58.0026 70.2217 63 68" stroke="#3B3B3B"/>
</svg>
