<svg width="48" height="45" viewBox="0 0 48 45" fill="none" xmlns="http://www.w3.org/2000/svg">
<path d="M23.0951 0.924134C23.4553 0.158245 24.5447 0.158245 24.9049 0.924134L31.0988 14.0942C31.246 14.4072 31.5446 14.6219 31.8882 14.6619L46.5398 16.3657C47.393 16.4649 47.7323 17.5226 47.0961 18.0997L36.2904 27.9004C36.0292 28.1372 35.9121 28.4941 35.9821 28.8396L38.8545 43.0176C39.0235 43.8519 38.1393 44.5024 37.3931 44.0927L24.4812 37.0042C24.1815 36.8396 23.8185 36.8396 23.5188 37.0042L10.6069 44.0927C9.86069 44.5024 8.97652 43.8519 9.14554 43.0176L12.0179 28.8396C12.0879 28.4941 11.9708 28.1372 11.7096 27.9004L0.903897 18.0997C0.267666 17.5226 0.607015 16.4649 1.46021 16.3657L16.1118 14.6619C16.4554 14.6219 16.754 14.4072 16.9012 14.0942L23.0951 0.924134Z" fill="#EFEFEF"/>
</svg>
